<?xml version="1.0" encoding="UTF-8"?>
<svg id="Calque_2" xmlns="http://www.w3.org/2000/svg" version="1.1" viewBox="0 0 346.68 325.87">
  <!-- Generator: Adobe Illustrator 29.7.1, SVG Export Plug-In . SVG Version: 2.1.1 Build 8)  -->
  <defs>
    <style>
      .st0 {
        stroke-dasharray: 2.9 3.86 .02 2.89 3.87 0;
      }

      .st0, .st1, .st2, .st3, .st4, .st5, .st6, .st7, .st8, .st9, .st10, .st11, .st12 {
        stroke-miterlimit: 10;
      }

      .st0, .st1, .st2, .st3, .st4, .st5, .st6, .st7, .st8, .st9, .st10, .st11, .st12, .st13 {
        stroke: #e0b4e0;
      }

      .st0, .st1, .st2, .st3, .st4, .st5, .st6, .st8, .st9, .st10, .st11 {
        stroke-width: 3px;
      }

      .st0, .st1, .st2, .st3, .st4, .st5, .st6, .st8, .st9, .st10, .st11, .st12 {
        fill: none;
      }

      .st14 {
        fill: #e0b4e0;
        stroke: #dcb4d6;
        stroke-linecap: round;
      }

      .st14, .st13 {
        stroke-linejoin: round;
      }

      .st1 {
        stroke-dasharray: .02 3.03 4.06 0;
      }

      .st2 {
        stroke-dasharray: 3.04 4.05 .02 3.03 4.06 0;
      }

      .st3 {
        stroke-dasharray: .02 2.85 3.82 0;
      }

      .st4 {
        stroke-dasharray: .02 2.89 3.87 0;
      }

      .st5 {
        stroke-dasharray: 2.86 3.81 .02 2.85 3.82 0;
      }

      .st7 {
        fill: #f2eec4;
      }

      .st7, .st13 {
        stroke-width: 2px;
      }

      .st8 {
        stroke-dasharray: .02 2.97 3.97 0;
      }

      .st9 {
        stroke-dasharray: .02 2.84 3.8 0;
      }

      .st10 {
        stroke-dasharray: 2.98 3.96 .02 2.97 3.97 0;
      }

      .st11 {
        stroke-dasharray: 2.85 3.79 .02 2.84 3.8 0;
      }

      .st13 {
        fill: #f3d9f4;
      }
    </style>
  </defs>
  <path class="st7" d="M343.69,282.7c-11.44,23.67-73.32,37.51-114,40-39.04,2.39-41.42-6.48-41.42-6.48,0,0-2.58-13.52-3.58-21.52l-3-24s-18,1-22.59-2.35-3.41,5.35-2.41,15.35c2,18,4,22-23,28-87,15-126-10-132-36,2-24,5-80,4-99S17.69,62.7,21.69,44.7c-.21-.61-.32-1.33-.35-2.13,58.69,28.67,225.03,39.22,304.52-1.68.2,1.61-.06,2.98-1.17,3.81,0,0,2,34,7,55,6.97,29.27,16,150,12,183h0Z"/>
  <g>
    <path class="st6" d="M92.69,62.7c-.09.49-.19.98-.28,1.47"/>
    <path class="st1" d="M91.67,68.15c-.42,2.28-.82,4.62-1.22,7.01"/>
    <path class="st2" d="M90.44,75.16c-11.42,68.12-15.57,176.34,40.32,195.58"/>
    <path class="st6" d="M130.77,270.73c.47.16.95.32,1.42.47"/>
  </g>
  <path class="st12" d="M88.19,61.2c-13,67-21,193,40,212"/>
  <g>
    <path class="st6" d="M171.69,67.7s.02.52.07,1.49"/>
    <path class="st4" d="M171.93,73.05c.08,1.84.18,4.11.3,6.77"/>
    <path class="st0" d="M172.23,79.82c1.79,41.02,7.24,173.03,3.92,189.45"/>
    <path class="st6" d="M176.15,269.28c-.14.67-.29,1.15-.46,1.42"/>
  </g>
  <path class="st12" d="M175.69,67.7s9,195,4,203"/>
  <g>
    <path class="st6" d="M256.69,61.7c.09.49.19.98.28,1.47"/>
    <path class="st8" d="M257.67,67.07c.39,2.25.76,4.54,1.11,6.87"/>
    <path class="st10" d="M258.78,73.94c11.45,76.29,1.03,190.13-44.67,207.26"/>
    <path class="st6" d="M214.1,281.21c-.47.18-.94.34-1.41.49"/>
  </g>
  <path class="st12" d="M260.19,61.2c14.72,76.43,8,200-43.5,223.5"/>
  <g>
    <path class="st6" d="M133.69,311.7c.13-.43.24-.92.32-1.46"/>
    <path class="st3" d="M134.24,306.44c0-1.96-.12-4.22-.31-6.68"/>
    <path class="st5" d="M133.93,299.76c-1.74-22.58-9.14-61.78,22.15-33.57"/>
    <path class="st6" d="M156.08,266.19c.36.33.73.67,1.11,1.01"/>
  </g>
  <path class="st12" d="M129.19,312.2c3-19-16-92,35-43"/>
  <g>
    <path class="st6" d="M216.69,323.7c-.09-.46-.17-.96-.24-1.48"/>
    <path class="st9" d="M216.05,318.45c-.16-2.01-.29-4.25-.43-6.65"/>
    <path class="st11" d="M215.63,311.8c-1.19-21.34-2.79-54.81-32.56-41.73"/>
    <path class="st6" d="M183.05,270.08c-.45.2-.9.4-1.36.62"/>
  </g>
  <path class="st12" d="M221.19,323.2c-3-16,2-76-41-56"/>
  <path class="st12" d="M3.19,261.2s7,51.42,130.5,34.21c22-3.42,23.39-8.32,23.39-8.32"/>
  <path class="st12" d="M344.41,273.08s-33.22,31.12-124.22,35.12c-29,0-34.01-3.69-34.01-3.69"/>
  <path class="st14" d="M321.19,5.2c-79,19-163.5,29.5-286.5.5,45.9,4.96,86.67,2.91,125.35,0,54.86-4.12,131.65-8,161.15-.5Z"/>
  <path class="st13" d="M325.69,43.7c-79.49,40.9-245.66,27.54-304.35-1.13-.53-10.84,13.35-36.87,13.35-36.87,123,29,207,19,286,0-1,14,1,20,1,23,0,2.17,6,8,4,15Z"/>
</svg>