<?xml version="1.0" encoding="UTF-8"?>
<svg id="Calque_2" data-name="Calque 2" xmlns="http://www.w3.org/2000/svg" viewBox="0 0 400 520">
  <defs>
    <style>
      .cls-1 {
        stroke-dasharray: 2.85 3.79 .02 2.84 3.8 0;
      }

      .cls-1, .cls-2, .cls-3, .cls-4, .cls-5, .cls-6, .cls-7, .cls-8, .cls-9, .cls-10, .cls-11, .cls-12, .cls-13, .cls-14 {
        stroke: #e0b4e0;
      }

      .cls-1, .cls-2, .cls-3, .cls-4, .cls-5, .cls-6, .cls-7, .cls-8, .cls-9, .cls-10, .cls-11, .cls-12, .cls-14 {
        stroke-miterlimit: 10;
      }

      .cls-1, .cls-2, .cls-3, .cls-4, .cls-5, .cls-6, .cls-8, .cls-9, .cls-10, .cls-11, .cls-12, .cls-14 {
        fill: none;
      }

      .cls-1, .cls-2, .cls-3, .cls-4, .cls-5, .cls-6, .cls-8, .cls-9, .cls-10, .cls-11, .cls-14 {
        stroke-width: 3px;
      }

      .cls-15 {
        fill: #e0b4e0;
        stroke: #dcb4d6;
        stroke-linecap: round;
      }

      .cls-15, .cls-13 {
        stroke-linejoin: round;
      }

      .cls-2 {
        stroke-dasharray: .02 2.84 3.8 0;
      }

      .cls-3 {
        stroke-dasharray: .02 3.03 4.06 0;
      }

      .cls-4 {
        stroke-dasharray: .02 2.85 3.82 0;
      }

      .cls-6 {
        stroke-dasharray: .02 2.97 3.97 0;
      }

      .cls-7 {
        fill: #f2eec4;
      }

      .cls-7, .cls-13 {
        stroke-width: 2px;
      }

      .cls-8 {
        stroke-dasharray: 2.9 3.86 .02 2.89 3.87 0;
      }

      .cls-9 {
        stroke-dasharray: 2.98 3.96 .02 2.97 3.97 0;
      }

      .cls-10 {
        stroke-dasharray: 2.86 3.81 .02 2.85 3.82 0;
      }

      .cls-11 {
        stroke-dasharray: .02 2.89 3.87 0;
      }

      .cls-13 {
        fill: #f3d9f4;
      }

      .cls-14 {
        stroke-dasharray: 3.04 4.05 .02 3.03 4.06 0;
      }
    </style>
  </defs>
  <path class="cls-7" d="M370,385c-11.44,23.67-73.32,37.51-114,40-39.04,2.39-41.42-6.48-41.42-6.48,0,0-2.58-13.52-3.58-21.52l-3-24s-18,1-22.59-2.35c-4.59-3.35-3.41,5.35-2.41,15.35,2,18,4,22-23,28-87,15-126-10-132-36,2-24,5-80,4-99s12-114,16-132c-.21-.61-.32-1.33-.35-2.13,58.69,28.67,225.03,39.22,304.52-1.68.2,1.61-.06,2.98-1.17,3.81,0,0,2,34,7,55,6.97,29.27,16,150,12,183Z"/>
  <g>
    <path class="cls-5" d="M119,165c-.09.49-.19.98-.28,1.47"/>
    <path class="cls-3" d="M117.98,170.45c-.42,2.28-.82,4.62-1.22,7.01"/>
    <path class="cls-14" d="M116.75,177.46c-11.42,68.12-15.57,176.34,40.32,195.58"/>
    <path class="cls-5" d="M157.08,373.03c.47.16.95.32,1.42.47"/>
  </g>
  <path class="cls-12" d="M114.5,163.5c-13,67-21,193,40,212"/>
  <g>
    <path class="cls-5" d="M198,170s.02.52.07,1.49"/>
    <path class="cls-11" d="M198.24,175.35c.08,1.84.18,4.11.3,6.77"/>
    <path class="cls-8" d="M198.54,182.12c1.79,41.02,7.24,173.03,3.92,189.45"/>
    <path class="cls-5" d="M202.46,371.58c-.14.67-.29,1.15-.46,1.42"/>
  </g>
  <path class="cls-12" d="M202,170s9,195,4,203"/>
  <g>
    <path class="cls-5" d="M283,164c.09.49.19.98.28,1.47"/>
    <path class="cls-6" d="M283.98,169.37c.39,2.25.76,4.54,1.11,6.87"/>
    <path class="cls-9" d="M285.09,176.24c11.45,76.29,1.03,190.13-44.67,207.26"/>
    <path class="cls-5" d="M240.41,383.51c-.47.18-.94.34-1.41.49"/>
  </g>
  <path class="cls-12" d="M286.5,163.5c14.72,76.43,8,200-43.5,223.5"/>
  <g>
    <path class="cls-5" d="M160,414c.13-.43.24-.92.32-1.46"/>
    <path class="cls-4" d="M160.55,408.74c0-1.96-.12-4.22-.31-6.68"/>
    <path class="cls-10" d="M160.24,402.06c-1.74-22.58-9.14-61.78,22.15-33.57"/>
    <path class="cls-5" d="M182.39,368.49c.36.33.73.67,1.11,1.01"/>
  </g>
  <path class="cls-12" d="M155.5,414.5c3-19-16-92,35-43"/>
  <g>
    <path class="cls-5" d="M243,426c-.09-.46-.17-.96-.24-1.48"/>
    <path class="cls-2" d="M242.36,420.75c-.16-2.01-.29-4.25-.43-6.65"/>
    <path class="cls-1" d="M241.94,414.1c-1.19-21.34-2.79-54.81-32.56-41.73"/>
    <path class="cls-5" d="M209.36,372.38c-.45.2-.9.4-1.36.62"/>
  </g>
  <path class="cls-12" d="M247.5,425.5c-3-16,2-76-41-56"/>
  <path class="cls-12" d="M29.5,363.5s7,51.42,130.5,34.21c22-3.42,23.39-8.32,23.39-8.32"/>
  <path class="cls-12" d="M370.72,375.38s-33.22,31.12-124.22,35.12c-29,0-34.01-3.69-34.01-3.69"/>
  <path class="cls-15" d="M347.5,107.5c-79,19-163.5,29.5-286.5.5,45.9,4.96,86.67,2.91,125.35,0,54.86-4.12,131.65-8,161.15-.5Z"/>
  <path class="cls-13" d="M352,146c-79.49,40.9-245.66,27.54-304.35-1.13-.53-10.84,13.35-36.87,13.35-36.87,123,29,207,19,286,0-1,14,1,20,1,23,0,2.17,6,8,4,15Z"/>
</svg>