<?xml version="1.0" encoding="UTF-8"?>
<svg id="Calque_1" data-name="Calque 1" xmlns="http://www.w3.org/2000/svg" viewBox="0 0 322.9 306.62">
  <defs>
    <style>
      .cls-1 {
        fill: #f3d9f4;
      }

      .cls-1, .cls-2 {
        stroke: #e0b4e0;
        stroke-miterlimit: 10;
      }

      .cls-2 {
        fill: #afdbda;
      }

      .cls-3 {
        fill: #e0b4e0;
      }

      .cls-4 {
        fill: #f2eec3;
      }
    </style>
  </defs>
  <path class="cls-2" d="M242.59,305.97S44.2,239.57.8,234.96C21.2,197.57,78.2.57,78.2.57c0,0,212,39,244,65-22,27-79.61,240.4-79.61,240.4Z"/>
  <path class="cls-4" d="M206.65,258.05l-148.03-43.47c-6.56-1.93-10.33-8.91-8.39-15.52L94.07,49.77c1.94-6.61,8.9-10.45,15.45-8.52l154.25,40.33c6.56,1.93,10.33,8.91,8.39,15.52l-50.07,152.43c-1.94,6.61-8.9,10.45-15.45,8.52Z"/>
  <path class="cls-1" d="M204.8,253.06l-142.96-41.99c-6.33-1.86-9.99-8.56-8.13-14.9L95.69,53.22c1.86-6.33,8.56-9.99,14.9-8.13l148.96,38.99c6.33,1.86,9.99,8.56,8.13,14.9l-47.99,145.96c-1.86,6.33-8.56,9.99-14.9,8.13Z"/>
  <g>
    <path class="cls-3" d="M114.74,145.47c.13-.56.52-.75.92-.94s.79-.38.93-1l3.71-15.96c.15-.63-.12-.97-.39-1.31s-.54-.68-.41-1.25c.15-.63.7-.92,1.36-.76l10.73,2.49c5.76,1.34,8.9,5.11,7.82,9.74s-5.63,6.93-11.29,5.61l-3.15-.73-.91,3.91c-.15.63.19.99.56,1.35.31.32.61.67.47,1.26-.15.63-.7.92-1.4.76l-8.08-1.88c-.66-.15-1.03-.66-.89-1.29ZM128,128.38l-2.29,9.83c.53.72,1.26,1.2,2.05,1.38,1.92.45,3.19-1.11,3.67-3.16.58-2.48.34-7.18-3.33-8.03l-.1-.02Z"/>
    <path class="cls-3" d="M137.57,147.6c1.03-4.44,6.81-4.35,10.84-3.52l.68-2.91c.51-2.19-.23-2.92-1.06-3.11-1.13-.26-1.55.65-2.05,1.76-.59,1.33-1.25,2.82-3.57,2.28-1.92-.45-2.55-1.78-2.23-3.17.59-2.55,4.1-3.65,8.73-2.58s7.77,3.66,6.72,8.19l-1.82,7.85c-.13.56.13.94.38,1.24.28.31.46.56.37.96-.22.96-1.77,1.16-3.53.75-2.19-.51-3.52-1.69-3.96-3.22-1.61,1.09-3.52,1.48-5.54,1.02-2.91-.68-4.58-2.81-3.95-5.53ZM146.37,150.59c.23.05.4.06.59.03.02-.24.04-.48.1-.74l.8-3.44c-.23-.37-.55-.62-.99-.72-.89-.21-1.9.36-2.21,1.72-.36,1.56.45,2.86,1.71,3.16Z"/>
    <path class="cls-3" d="M157.22,151.65l2.39-10.26-.66-.15c-.63-.15-.95-.71-.8-1.37.17-.73.79-.86,1.77-1.02,2.03-.33,4.04-1.16,5.53-2.48.58-.53,1.07-.83,1.7-.69s.96.68.81,1.34l-.91,3.91,2.98.69c.63.15.93.67.78,1.3s-.64.93-1.27.79l-2.98-.69-2.36,10.17c-.18.79.17,1.37.9,1.54.4.09.73.03,1.02-.04.37-.09.66-.13.92-.06.53.12.76.63.65,1.13-.31,1.32-3.12,2.76-6.37,2.01s-4.78-3.17-4.1-6.08Z"/>
    <path class="cls-3" d="M169.69,150.43c1.23-5.3,5.72-7.92,10.98-6.7,3.94.92,6.73,3.62,6.09,6.37-.38,1.62-1.74,2.25-3.5,1.84-2.48-.58-2.61-2.46-2.69-4.19-.04-1.16-.13-2.16-.92-2.34-1.16-.27-1.88,1.48-2.3,3.27-.6,2.58-.75,7.75,2.95,8.61,1.29.3,2.22-.08,2.99-.56.57-.36.97-.58,1.44-.47s.76.49.53,1.48c-.75,3.21-4.6,4.48-8.71,3.52-5.36-1.25-8.1-5.55-6.87-10.85Z"/>
    <path class="cls-3" d="M185.07,161.9c.12-.53.48-.69.83-.85.43-.21.76-.42.89-.98l3.96-17.02c.13-.56-.11-.9-.38-1.24-.24-.3-.49-.6-.36-1.13.13-.56.66-.89,1.26-.75l5.76,1.34c.86.2,1.28.82,1.08,1.68l-1.66,7.12c1.72-1.24,3.83-1.76,5.95-1.27,2.91.68,4.69,2.94,3.94,6.19l-2.13,9.14c-.13.56.07.89.37,1.27.24.3.49.6.36,1.13-.13.56-.62.87-1.25.72l-7.32-1.7c-.63-.15-.97-.64-.84-1.21.12-.53.48-.69.83-.85.43-.21.76-.42.89-.98l2.09-8.97c.24-1.03-.3-1.88-1.26-2.11-.76-.18-1.49.11-2.12.69l-2.23,9.57c-.13.56.07.89.37,1.27.24.3.49.6.36,1.13-.13.56-.65.86-1.28.71l-7.32-1.7c-.63-.15-.93-.64-.8-1.2Z"/>
  </g>
</svg>