<?xml version="1.0" encoding="UTF-8"?>
<svg id="Calque_2" data-name="Calque 2" xmlns="http://www.w3.org/2000/svg" viewBox="0 0 351.55 180.65">
  <defs>
    <style>
      .cls-1 {
        fill: #abe4df;
      }

      .cls-1, .cls-2, .cls-3 {
        stroke-miterlimit: 10;
        stroke-width: 2px;
      }

      .cls-1, .cls-3 {
        stroke: #dcb4d6;
      }

      .cls-4 {
        fill: #fff;
      }

      .cls-2 {
        fill: #f2eec4;
        stroke: #e0b4e0;
      }

      .cls-3 {
        fill: #f3d9f4;
      }
    </style>
  </defs>
  <path class="cls-2" d="M103.94,175.87c-20.19,9.42-44.42.61-53.84-19.59l-16.09-34.49-9.64-20.68c-.3-1.95-.45-3.94-.45-5.96,0-23.2,19.92-42,44.5-42,10.15,0,19.51,3.21,27,8.61l17.32,37.14,10.79,23.13c9.42,20.2.61,44.42-19.59,53.84Z"/>
  <path class="cls-3" d="M95.42,61.76c-7.49-5.4-16.85-8.61-27-8.61-24.58,0-44.5,18.8-44.5,42,0,2.02.15,4.01.45,5.96L4.55,58.62c-9.02-21.25-.24-45.4,19.59-53.84,5.5-2.56,11.29-3.78,17-3.78,15.28,0,29.98,8.68,36.84,23.37l17.44,37.39Z"/>
  <path class="cls-1" d="M244.74,111.73l-64.39,9.7c-5.29.64-10.45.61-15.37,0-20.64-2.58-36.83-15.51-38.72-32.82-.25-1.69-.38-3.37-.38-5.04,0-17.18,13.08-33.11,32.06-39.71,3.28-1.14,6.74-2.01,10.34-2.55l62.53-9.42c6.71,12.31,11.7,27.72,13.88,44.77,1.58,12.37,1.51,24.27.05,35.07Z"/>
  <path class="cls-2" d="M308.17,102.17l-63.43,9.56c1.46-10.8,1.53-22.7-.05-35.07-2.18-17.05-7.17-32.46-13.88-44.77l65.28-9.84c26.43-3.98,50.77,10.79,54.09,32.82,3.32,22.03-15.59,43.32-42.01,47.3Z"/>
  <ellipse class="cls-4" cx="31.95" cy="15.19" rx="14" ry="4.86" transform="translate(-3.38 13.46) rotate(-22.62)"/>
  <ellipse class="cls-4" cx="225.33" cy="50.71" rx="70.71" ry="6.5" transform="translate(-4.78 30.85) rotate(-7.75)"/>
  <ellipse class="cls-4" cx="313.36" cy="37.31" rx="9.95" ry="4.18" transform="translate(-2.17 42.6) rotate(-7.75)"/>
  <path class="cls-4" d="M69.56,136.99c-2.25,2.16-5.22,5.38-7.99,11.59,0,0-7.62-19.22-10.57-25.22-12.2-24.77-18.63-41.54-16.6-43.05,2.02-1.51,12.81,12.58,25.01,37.34,2.68,5.43,9.38,17.56,10.15,19.34Z"/>
</svg>