<?xml version="1.0" encoding="UTF-8"?>
<svg xmlns="http://www.w3.org/2000/svg" viewBox="0 0 416.98 257.54">
  <defs>
    <style>
      .cls-1, .cls-2, .cls-3, .cls-4 {
        stroke-width: 2px;
      }

      .cls-1, .cls-2, .cls-3, .cls-5 {
        fill: #e0b4e0;
      }

      .cls-1, .cls-2, .cls-4 {
        stroke: #afdbda;
      }

      .cls-1, .cls-3, .cls-4 {
        stroke-miterlimit: 10;
      }

      .cls-6 {
        fill: #f0d8eb;
      }

      .cls-7 {
        fill: #f3d9f4;
      }

      .cls-2 {
        stroke-linejoin: round;
      }

      .cls-3 {
        stroke: #f3d9f4;
      }

      .cls-4 {
        fill: none;
      }

      .cls-8 {
        fill: #efd8ea;
      }
    </style>
  </defs>
  <g id="Calque_3" data-name="Calque 3">
    <path class="cls-2" d="M138.98,61.5c4.57,11.83,69.94,131.46,69.94,131.46,0,0,13.87,11.75,22.85,13.65,15.08,3.18,38.57-2.16,44.8-3.64,9.6-2.27,139.41-53.22,139.41-64.14,0-20.01-59.88-69.59-93.7-137.82-1.83,3.64-2.74,2.73-2.74,2.73l-6.4-.91s-.91,4.55-2.74,4.55-5.49-.91-5.49-.91c0,0-1.83,1.82-3.66,1.82h-7.31s-1.83,3.64-2.74,3.64-4.11-3.18-4.11-3.18c0,0-5.94,6.82-6.86,5.91s-6.4-.91-6.4-.91l-2.74,2.73-7.31.91h-.91s-6.4,0-6.4,0l-1.83,3.64h-7.31s-4.11,3.86-4.11,3.86c0,0-4.11-.22-5.03-1.13s-3.66,2.73-3.66,2.73c0,0-4.57,1.82-5.49.91s-3.66,2.73-3.66,2.73c0,0-4.57-.91-7.31-.91s-3.66,4.55-3.66,4.55h-4.57s-4.57,0-5.49,1.82-6.4,0-6.4,0l-4.57,4.55-6.4-1.82-3.66,3.64-5.49-.91s-1.83,3.64-3.2,6.82c-.51,1.18-7.77,2.27-9.6,1.36s-2.74,5.46-2.74,5.46c0,0-7.77.45-8.68-.45s-3.66,7.28-3.66,7.28c0,0-9.14,1.82-10.97,0ZM186.97,54.67c7.19-2.26,27.22-8.26,48.62-14.65,8.81-2.63,17.87-5.32,26.36-7.85,20.66-6.16,37.94-11.32,40.22-12.07,5.49-1.82,14.63-2.73,32.91,22.74,3.17,4.42,7.06,9.77,11.32,15.59,14.24,19.48,32.64,44.27,42.34,57.31,4.13,5.54,6.68,8.97,6.68,8.97,1.57,7.82-.25,14.95-6.02,18.55-.93.58-1.97,1.07-3.12,1.46-3.29,1.11-21.51,7.96-42.96,15.96,0,0-.03.02-.05.02-.13.06-.27.12-.43.16-.02,0-.04,0-.05.02-5.13,1.91-10.44,3.89-15.77,5.88-.02,0-.03,0-.05.02,0,0-.02,0-.04,0-4.67,1.75-9.35,3.48-13.95,5.18,0,0-.02,0-.03,0-.13.07-.27.13-.43.16,0,0-.03,0-.04,0-3.69,1.36-7.31,2.7-10.82,3.99,0,0,0,0,0,0-.14.16-1.09.67-1.61.58h0c-4.61,1.69-8.99,3.28-13.01,4.74-1.84.66-3.59,1.29-5.27,1.89h0c-.2.22-.61-.43-1.33.48-9.13,3.25-15.41,5.36-16.65,5.46-6.45.54-30.17,11.83-39.31-6.37-9.14-18.19-46.98-95.52-49.54-100.98-2.57-5.46-5.31-21.83,12.06-27.29Z"/>
    <path class="cls-8" d="M287.02,181.48c4.02-1.46,8.4-3.05,13.01-4.74-2.28-.36-6.44-3.07-7.93-3.8-3.11-1.55-5,8.14-5.08,8.54Z"/>
    <path class="cls-8" d="M301.66,176.15c3.51-1.29,7.13-2.63,10.82-3.99-3.03.75-4.85-3.77-6.66-2.86-1.65.82-2.87,5.18-4.16,6.85Z"/>
    <path class="cls-8" d="M312.98,171.97c4.6-1.69,9.28-3.43,13.95-5.18-1.98.63-8.32-3.86-10.14-2.96-1.73.86-1.27,6.82-3.81,8.13Z"/>
    <path class="cls-8" d="M327.01,166.77c5.33-1.98,10.64-3.97,15.77-5.88-4.09,1.09-8.64-3.42-12.28-2.51-3.63.9-1.63,7.61-3.49,8.39Z"/>
    <path class="cls-8" d="M343.31,160.69c21.45-8,39.67-14.85,42.96-15.96,1.14-.39,2.18-.88,3.12-1.46,0,0-4.95-6.72-6.77-5.81s1.83,7.28-1.83,8.19-6.4-1.82-9.14-.91-.91,4.55-3.66,5.46-4.21-1.57-4.85-.78c-.64.78,1.19,2.6-2.47,3.51s-12.8-3.64-14.63-2.73c-1.76.87.68,8.82-2.73,10.5Z"/>
    <path class="cls-7" d="M261.94,32.18s4.56,3.39,8.22,4.3,16.46-3.64,21.94-.91,5.49,11.83,10.04,14.56c4.55,2.73,15.56-2.73,22.87,0s17.37,10.01,21.37,8.31c-4.26-5.82-8.15-11.17-11.32-15.59-18.28-25.47-27.43-24.56-32.91-22.74-2.28.76-19.55,5.91-40.22,12.07Z"/>
    <path class="cls-5" d="M281.76,183.37c1.67-.6,3.43-1.23,5.27-1.89.08-.4,1.97-10.09,5.08-8.54,1.49.74,5.65,3.44,7.93,3.8h0c.54-.2,1.07-.39,1.61-.58,0,0,0,0,0,0,1.29-1.67,2.5-6.03,4.16-6.85,1.82-.91,3.64,3.6,6.66,2.86,0,0,.03,0,.04,0,.15-.05.28-.11.43-.16,0,0,.02,0,.03,0,2.54-1.31,2.08-7.27,3.81-8.13,1.82-.9,8.15,3.58,10.14,2.96.02,0,.03,0,.04,0,.02,0,.03,0,.05-.02,1.86-.78-.14-7.49,3.49-8.39,3.64-.91,8.19,3.6,12.28,2.51.02,0,.04,0,.05-.02.15-.05.29-.11.43-.16.02,0,.04,0,.05-.02,3.41-1.67.98-9.62,2.73-10.5,1.83-.91,10.97,3.64,14.63,2.73s1.83-2.73,2.47-3.51c.63-.79,2.1,1.69,4.85.78s.91-4.55,3.66-5.46,5.49,1.82,9.14.91,0-7.28,1.83-8.19,6.77,5.81,6.77,5.81c5.78-3.6,7.6-10.73,6.02-18.55,0,0-2.55-3.43-6.68-8.97,1.2,7.15,6.68,17.16,2.11,18.98-3.06,1.22-7.37-.84-10.41-1.76,0,0,0,0-.02,0-1.49-.45-2.68-.65-3.28-.05-1.83,1.82,1.83,8.75,0,9.38s-8.23-5.74-10.06-4.83,1.83,8.19-1.83,9.1-4.57-4.55-6.4-3.64,1.83,7.3,0,7.29c-1.83,0-12.8-10.93-18.28-8.2s0,13.65-2.74,14.56-10.97-9.1-13.71-7.28,2.74,11.55,0,12.14c-2.74.59-8.23-5.78-10.97-3.96s0,11.83-1.83,12.74-7.31-10.01-9.14-8.19.91,10.92-1.83,11.83-5.49-10.01-9.14-9.1c-.31.07-.61.26-.91.55-.04.03-.06.06-.1.1-.1.1-.2.21-.29.33-2.88,3.58-4.92,15.49-7.72,17.16-.14.18-.27.35-.4.49Z"/>
    <path class="cls-7" d="M174.91,81.97c2.56,5.46,40.4,82.79,49.54,100.98,9.14,18.19,32.87,6.9,39.31,6.37,1.23-.1,7.51-2.21,16.65-5.46-.04-.29.17-.89.1-1.5-.09.6-.19,1.11-.29,1.5,0,0-7.31-7.28-14.63,0-7.31,7.28-5.49-2.73-6.4-6.37s-3.66-9.1-12.8-6.37c-9.14,2.73-17.37,10.92-19.2,10.92s1.83-10.01,7.31-18.19c5.49-8.19-8.23-10.01-11.88-7.28-3.66,2.73-9.14,0-7.31-9.1,1.83-9.1-4.57-8.19-8.23-8.19s-4.57-9.1-3.66-13.65-1.83-1.82-2.74-3.64,1.83-6.43,0-7.77c-1.83-1.33-3.66-.42-3.66-3.15s4.57-5.46,3.66-7.28-10.29-.87-10.63-4.53c-.34-3.66,20.69-21.85,19.77-25.49s-7.31-4.55-7.31-7.28,20.11-5.46,23.77-9.1,9.48-12,9.31-17.38c-21.4,6.39-41.43,12.39-48.62,14.65-17.37,5.46-14.63,21.83-12.06,27.29Z"/>
    <path class="cls-5" d="M200.68,103.8c.91,1.82-3.66,4.55-3.66,7.28s1.83,1.82,3.66,3.15c1.83,1.34-.91,5.95,0,7.77s3.66-.91,2.74,3.64,0,13.65,3.66,13.65,10.06-.91,8.23,8.19c-1.83,9.1,3.66,11.83,7.31,9.1,3.66-2.73,17.37-.91,11.88,7.28-5.49,8.19-9.14,18.19-7.31,18.19s10.06-8.19,19.2-10.92c9.14-2.73,11.88,2.73,12.8,6.37s-.91,13.65,6.4,6.37c7.31-7.28,14.63,0,14.63,0,.1-.39.2-.9.29-1.5.77-4.92,1.14-15.78-2.12-15.78-3.66,0-14.63,16.38-15.54,13.65s3.66-13.65-.91-15.47c-4.57-1.82-21.03,2.73-31.08,10.01-6.4,1.82,8.36-14.47,10.06-17.28,2.74-4.55-9.14-10.92-17.37-10.01s-1.83-7.28-3.66-10.01-9.14-4.55-10.06-7.28c-.89-2.66-1.76-14.97-.13-23.85.02-.92.06-1.85.15-2.77,2.47-28.31,34.35-48.68,71.2-45.49,36.84,3.18,64.71,28.72,62.24,57.03-.14,1.55-.36,3.07-.67,4.56,0,0-.05.22-.13.61h0c-.56,2.93-2.25,15.27,9.04,14.46,12.79-.91,23.03-4.44,28.88-1.77,0,0,0,0,.02,0,3.04.93,7.35,2.98,10.41,1.76,4.57-1.82-.91-11.83-2.11-18.98-9.7-13.05-28.09-37.84-42.34-57.31-4,1.69-14.06-5.59-21.37-8.31s-18.32,2.73-22.87,0c-4.55-2.73-4.55-11.83-10.04-14.56s-18.28,1.82-21.94.91-8.22-4.3-8.22-4.3c-8.48,2.53-17.54,5.22-26.36,7.85.17,5.38-5.65,13.74-9.31,17.38s-23.77,6.37-23.77,9.1,6.4,3.64,7.31,7.28-20.11,21.83-19.77,25.49c.34,3.66,9.72,2.71,10.63,4.53Z"/>
    <path class="cls-4" d="M209.83,105.62c-.05.24-.09.47-.13.71"/>
    <path class="cls-6" d="M209.83,130.18c.91,2.73,8.23,4.55,10.06,7.28s-4.57,10.92,3.66,10.01,20.11,5.46,17.37,10.01c-1.7,2.81-16.46,19.1-10.06,17.28,10.06-7.28,26.51-11.83,31.08-10.01,4.57,1.82,0,12.74.91,15.47s11.88-13.65,15.54-13.65c3.26,0,2.89,10.86,2.12,15.78.13,1.06.29,1.21,1.54.59.04-.02.07-.04.11-.06,2.51-3.42,4.98-13.86,7.72-17.16.09-.12.19-.23.29-.33.04-.04.06-.07.1-.1.3-.28.6-.47.91-.55,3.66-.91,6.4,10.01,9.14,9.1s0-10.01,1.83-11.83,7.31,9.1,9.14,8.19-.91-10.92,1.83-12.74,8.23,4.55,10.97,3.96c2.74-.59-2.74-10.33,0-12.14s10.97,8.19,13.71,7.28-2.74-11.83,2.74-14.56,16.46,8.19,18.28,8.2c1.83,0-1.83-6.38,0-7.29s2.74,4.55,6.4,3.64,0-8.19,1.83-9.1,8.23,5.46,10.06,4.83-1.83-7.56,0-9.38c.6-.6,1.79-.41,3.28.05-5.85-2.67-16.09.86-28.88,1.77-11.29.8-9.6-11.54-9.04-14.46-5.66,25.57-35.85,43.3-70.4,40.32-35.64-3.08-62.88-27.08-62.38-54.27-1.63,8.88-.76,21.2.13,23.85Z"/>
    <path class="cls-4" d="M287.02,181.48h0"/>
    <path class="cls-3" d="M209.7,106.33c-.49,27.18,26.74,51.18,62.38,54.27,34.56,2.98,64.74-14.75,70.4-40.32h0c.07-.4.13-.62.13-.62.31-1.49.53-3.01.67-4.56,2.47-28.31-25.4-53.85-62.24-57.03-36.85-3.19-68.73,17.18-71.2,45.49-.08.93-.13,1.86-.15,2.77Z"/>
  </g>
  <g id="Calque_2" data-name="Calque 2">
    <path class="cls-1" d="M304.48,87.5s-3-6-4-5-6,1-6,1c0,0-1-7-3-6s-7,1-8,0l-3-3-6,1-4-4-7,2-5-5s-6,2-7,0-6-2-6-2h-5s-1-5-4-5-8,1-8,1c0,0-3-4-4-3s-6-1-6-1c0,0-3-4-4-3s-5.5,1.24-5.5,1.24l-4.5-4.24h-8l-2-4h-7l-2-4-8-1-3-3s-6,0-7,1-4-5-4-5h-7c-1,0-3-4-3-4h-8c-2,0-4-6-4-6,0,0-4,1-6,1s-3-5-3-5l-7,1s-1,1-3-3C85.48,95.5,19.48,177.5,2.48,189.5c20,4,163,63,170,63s39,3,49,4,25-15,25-15c0,0,65-141,70-154-2,2-12,0-12,0ZM283.67,119.5c-2.8,6-44.19,91-54.19,111s-35.95,7.59-43,7c-1.35-.11-8.22-2.43-18.21-6-.79-1-1.24-.29-1.46-.52h-.01c-1.83-.67-3.75-1.36-5.76-2.09-4.4-1.6-9.19-3.35-14.23-5.21h-.01c-.57.1-1.61-.46-1.76-.64,0-.01-.01-.01-.01-.01-3.84-1.42-7.8-2.89-11.84-4.39-.01,0-.03-.01-.04-.01-.17-.04-.33-.1-.47-.18-.01,0-.02-.01-.03-.01-5.03-1.86-10.15-3.77-15.26-5.69-.02,0-.03-.01-.04-.01-.02-.01-.03-.01-.05-.02-5.83-2.18-11.64-4.36-17.25-6.46-.02-.01-.04-.01-.06-.02-.17-.05-.33-.11-.47-.18-.02,0-.04-.01-.05-.02-23.46-8.79-43.39-16.32-46.99-17.54-1.25-.43-2.39-.97-3.41-1.61-6.32-3.96-8.31-11.79-6.59-20.39,0,0,2.79-3.77,7.31-9.86,10.61-14.34,30.73-41.59,46.31-63,4.66-6.4,8.91-12.28,12.38-17.14,20-28,30-27,36-25,2.49.83,21.39,6.5,43.99,13.27,9.28,2.78,19.19,5.74,28.83,8.63,23.41,7.02,45.32,13.62,53.18,16.1,19,6,16,24,13.19,30Z"/>
    <path class="cls-8" d="M161.04,228.89c-4.4-1.6-9.19-3.35-14.23-5.21,2.49-.4,7.04-3.37,8.67-4.18,3.4-1.7,5.47,8.95,5.56,9.39Z"/>
    <path class="cls-8" d="M145.03,223.03c-3.84-1.42-7.8-2.89-11.84-4.39,3.31.82,5.3-4.14,7.29-3.14,1.81.9,3.14,5.69,4.55,7.53Z"/>
    <path class="cls-8" d="M132.65,218.44c-5.03-1.86-10.15-3.77-15.26-5.69,2.17.69,9.1-4.24,11.09-3.25,1.89.95,1.39,7.5,4.17,8.94Z"/>
    <path class="cls-8" d="M117.3,212.72c-5.83-2.18-11.64-4.36-17.25-6.46,4.47,1.2,9.45-3.76,13.43-2.76,3.97.99,1.78,8.36,3.82,9.22Z"/>
    <path class="cls-8" d="M99.47,206.04c-23.46-8.79-43.39-16.32-46.99-17.54-1.25-.43-2.39-.97-3.41-1.61,0,0,5.41-7.39,7.41-6.39s-2,8,2,9,7-2,10-1,1,5,4,6,4.61-1.73,5.3-.86c.7.86-1.3,2.86,2.7,3.86s14-4,16-3c1.92.96-.74,9.7,2.99,11.54Z"/>
    <path class="cls-7" d="M188.47,64.77s-4.99,3.73-8.99,4.73-18-4-24-1-6,13-10.98,16c-4.98,3-17.02-3-25.02,0s-19,11-23.38,9.14c4.66-6.4,8.91-12.28,12.38-17.14,20-28,30-27,36-25,2.49.83,21.39,6.5,43.99,13.27Z"/>
    <path class="cls-5" d="M166.8,230.97c-1.83-.66-3.75-1.35-5.76-2.08-.09-.44-2.16-11.09-5.56-9.39-1.63.81-6.18,3.78-8.67,4.18h-.01c-.59-.22-1.17-.43-1.76-.64,0-.01-.01-.01-.01-.01-1.41-1.84-2.74-6.63-4.55-7.53-1.99-1-3.98,3.96-7.29,3.14-.01,0-.03-.01-.04-.01-.16-.06-.31-.12-.47-.18-.01,0-.02-.01-.03-.01-2.78-1.44-2.28-7.99-4.17-8.94-1.99-.99-8.92,3.94-11.09,3.25-.02,0-.03-.01-.04-.01-.02-.01-.03-.01-.05-.02-2.04-.86.15-8.23-3.82-9.22-3.98-1-8.96,3.96-13.43,2.76-.02-.01-.04-.01-.06-.02-.16-.06-.32-.12-.47-.18-.02,0-.04-.01-.05-.02-3.73-1.84-1.07-10.58-2.99-11.54-2-1-12,4-16,3s-2-3-2.7-3.86c-.69-.87-2.3,1.86-5.3.86s-1-5-4-6-6,2-10,1,0-8-2-9-7.41,6.39-7.41,6.39c-6.32-3.96-8.31-11.79-6.59-20.39,0,0,2.79-3.77,7.31-9.86-1.31,7.86-7.31,18.86-2.31,20.86,3.35,1.34,8.06-.92,11.39-1.94.01,0,.01-.01.02-.01,1.63-.5,2.93-.71,3.59-.05,2,2-2,9.62,0,10.31s9-6.31,11-5.31-2,9,2,10,5-5,7-4-2,8.02,0,8.01c2-.01,14-12.01,20-9.01s0,15,3,16,12-10,15-8-3,12.7,0,13.35c3,.65,9-6.35,12-4.35s0,13,2,14,8-11,10-9-1,12,2,13,6-11,10-10c.34.08.67.29,1,.6.04.03.07.07.11.11.11.11.22.23.32.36,3.15,3.94,5.38,17.03,8.45,18.86.15.2.29.38.44.54Z"/>
    <path class="cls-7" d="M283.67,119.5c-2.8,6-44.19,91-54.19,111s-35.95,7.59-43,7c-1.35-.11-8.22-2.43-18.21-6,.04-.32-.19-.98-.11-1.65.1.66.21,1.22.32,1.65,0,0,8-8,16,0s6-3,7-7,4-10,14-7,19,12,21,12-2-11-8-20,9-11,13-8,10,0,8-10,5-9,9-9,5-10,4-15,2-2,3-4-2-7.07,0-8.54c2-1.46,4-.46,4-3.46s-5-6-4-8,11.26-.96,11.63-4.98c.37-4.02-22.63-24.02-21.63-28.02s8-5,8-8-22-6-26-10-10.37-13.19-10.18-19.1c23.41,7.02,45.32,13.62,53.18,16.1,19,6,16,24,13.19,30Z"/>
    <path class="cls-5" d="M255.48,143.5c-1,2,4,5,4,8s-2,2-4,3.46c-2,1.47,1,6.54,0,8.54s-4-1-3,4,0,15-4,15-11-1-9,9-4,13-8,10-19-1-13,8,10,20,8,20-11-9-21-12-13,3-14,7,1,15-7,7-16,0-16,0c-.11-.43-.22-.99-.32-1.65-.84-5.41-1.25-17.35,2.32-17.35,4,0,16,18,17,15s-4-15,1-17,23,3,34,11c7,2-9.14-15.91-11-19-3-5,10-12,19-11s2-8,4-11,10-5,11-8c.97-2.92,1.92-16.46.14-26.22-.02-1.01-.07-2.03-.16-3.05-2.7-31.12-37.57-53.51-77.88-50-40.3,3.5-70.78,31.57-68.08,62.69.15,1.7.39,3.37.73,5.01,0,0,.06.24.14.67h0c.61,3.22,2.46,16.78-9.89,15.9-13.99-1-25.19-4.88-31.59-1.95,0,0,0,.01-.02.01-3.33,1.02-8.04,3.28-11.39,1.94-5-2,1-13,2.31-20.86,10.61-14.34,30.73-41.59,46.31-63,4.38,1.86,15.38-6.14,23.38-9.14s20.04,3,25.02,0c4.98-3,4.98-13,10.98-16s20,2,24,1,8.99-4.73,8.99-4.73c9.28,2.78,19.19,5.74,28.83,8.63-.19,5.91,6.18,15.1,10.18,19.1s26,7,26,10-7,4-8,8,22,24,21.63,28.02c-.37,4.02-10.63,2.98-11.63,4.98Z"/>
    <path class="cls-4" d="M245.62,146.28c-.04-.26-.09-.52-.14-.78"/>
    <path class="cls-6" d="M245.48,172.5c-1,3-9,5-11,8s5,12-4,11-22,6-19,11c1.86,3.09,18,21,11,19-11-8-29-13-34-11s0,14-1,17-13-15-17-15c-3.57,0-3.16,11.94-2.32,17.35-.14,1.17-.32,1.33-1.68.65-.04-.02-.08-.04-.12-.07-2.75-3.76-5.45-15.24-8.45-18.86-.1-.13-.21-.25-.32-.36-.04-.04-.07-.08-.11-.11-.33-.31-.66-.52-1-.6-4-1-7,11-10,10s0-11-2-13-8,10-10,9,1-12-2-14-9,5-12,4.35c-3-.65,3-11.35,0-13.35s-12,9-15,8,3-13-3-16-18,9-20,9.01c-2,0,2-7.01,0-8.01s-3,5-7,4,0-9-2-10-9,6-11,5.31,2-8.31,0-10.31c-.66-.66-1.96-.45-3.59.05,6.4-2.93,17.6.95,31.59,1.95,12.35.88,10.5-12.68,9.89-15.89,6.19,28.11,39.21,47.6,77.01,44.32,38.99-3.39,68.78-29.77,68.24-59.65,1.78,9.76.83,23.3-.14,26.22Z"/>
    <path class="cls-4" d="M161.04,228.9h0"/>
    <path class="cls-3" d="M245.62,146.28c.54,29.88-29.25,56.26-68.24,59.65-37.8,3.28-70.82-16.21-77.01-44.32h0c-.08-.44-.14-.68-.14-.68-.34-1.64-.58-3.31-.73-5.01-2.7-31.12,27.78-59.19,68.08-62.69,40.31-3.51,75.18,18.88,77.88,50,.09,1.02.14,2.04.16,3.05Z"/>
  </g>
</svg>